<?xml version="1.0" encoding="UTF-8"?>
<svg id="Layer_1" xmlns="http://www.w3.org/2000/svg" version="1.1" viewBox="0 0 24 24">
  <!-- Generator: Adobe Illustrator 29.1.0, SVG Export Plug-In . SVG Version: 2.1.0 Build 142)  -->
  <defs>
    <style>
      .st0 {
        fill: #4a5e4d;
      }
    </style>
  </defs>
  <path class="st0" d="M22.6.7c-2.1,1-4.1,1.2-6.1,1.3-.6,0-1.2,0-1.8,0-3.4,0-6.9,0-9.7,3-1.9,1.9-2.9,4.4-2.9,7s.8,4.5,2.3,6.3L0,22.6l1.4,1.4,4.2-4.2c1.8,1.5,4,2.2,6.3,2.2s5.1-1,7-2.9c4.4-4.4,5-11,5-17.5V0l-1.4.7ZM17.6,17.6c-3.1,3.1-8.1,3.1-11.2,0-1.5-1.5-2.3-3.5-2.3-5.6s.8-4.1,2.3-5.6c2.3-2.3,5.1-2.3,8.3-2.4.6,0,1.3,0,1.9,0,1.7,0,3.5-.2,5.4-.9-.1,5.5-.8,11-4.4,14.5h0ZM12.5,7.9c-.6-.5-1.4-.9-2.2-.9-1.8,0-3.2,1.5-3.2,3.4,0,3,4.4,6.1,4.9,6.5l.6.4.6-.4c.5-.4,4.9-3.5,4.9-6.5s-1.5-3.4-3.2-3.4-1.7.3-2.2.9ZM16,10.4c0,1.2-1.9,3.2-3.5,4.4-1.4-1.1-3.5-3.1-3.5-4.4s.6-1.4,1.2-1.4,1.2.4,1.2,1.2v.8h2v-.8c0-.8.6-1.2,1.2-1.2s1.2.6,1.2,1.4Z"/>
</svg>