<?xml version="1.0" encoding="UTF-8"?>
<svg id="Layer_1" xmlns="http://www.w3.org/2000/svg" version="1.1" viewBox="0 0 512 512">
  <!-- Generator: Adobe Illustrator 29.1.0, SVG Export Plug-In . SVG Version: 2.1.0 Build 142)  -->
  <defs>
    <style>
      .st0 {
        fill: #fff;
        stroke: #1d1d1b;
        stroke-miterlimit: 10;
      }
    </style>
  </defs>
  <path class="st0" d="M78.8,149.3H.1v-42.7h73.6l5.1,42.7ZM.1,277.3v42.7h98.8l-5.1-42.7H.1ZM83.7,192H.1v42.7h88.7s-5.1-42.7-5.1-42.7ZM460.7,320H184.6l2.8,23.9c1.3,10.7,10.5,18.8,21.1,18.8h239.4v42.7h-239.1c-32.4,0-59.7-24.3-63.6-56.5L111.3,61.4c-1.3-10.7-10.5-18.8-21.1-18.8h-47.4V0h47.4C122.6,0,149.9,24.3,153.7,56.5l.9,7.5h357.3l-51.2,256ZM459.8,106.7H159.7l20.1,170.7h246l34.1-170.7h0ZM192.1,426.7c-23.5,0-42.7,19.2-42.7,42.7s19.2,42.7,42.7,42.7,42.7-19.2,42.7-42.7-19.2-42.7-42.7-42.7ZM384.1,426.7c-23.5,0-42.7,19.2-42.7,42.7s19.2,42.7,42.7,42.7,42.7-19.2,42.7-42.7-19.2-42.7-42.7-42.7Z"/>
</svg>