<?xml version="1.0" encoding="UTF-8"?>
<svg id="Livello_1" xmlns="http://www.w3.org/2000/svg" version="1.1" viewBox="0 0 40.6 41">
  <!-- Generator: Adobe Illustrator 29.1.0, SVG Export Plug-In . SVG Version: 2.1.0 Build 142)  -->
  <defs>
    <style>
      .st0 {
        fill: #485e4d;
      }
    </style>
  </defs>
  <path class="st0" d="M20.3,0C14.9,0,9.8,2.1,6,6,2.1,9.8,0,14.9,0,20.3s2.3,11.1,6.6,15c3.4,3.1,7.8,5,12.4,5.3,11.8.7,21.6-8.7,21.6-20.3S31.5,0,20.3,0h0ZM12.8,14.6v.2c0,.2,0,.4-.3.4l-9.7,3.2c-.3,0-.5-.1-.5-.4.2-1.5.6-3,1.1-4.4,0-.2.2-.3.4-.3l8.5.9c.2,0,.3.2.3.3h0ZM37.1,13.6c.5,1.4.9,2.8,1.1,4.4,0,.3-.2.5-.5.4l-9.6-3.2c-.2,0-.3-.2-.3-.4v-.2c0-.2.2-.3.3-.3l8.5-.9c.2,0,.3,0,.4.3h0ZM25.8,8.3l2.7-3.7c.1-.2.3-.2.5-.1.7.4,1.4.8,2,1.3.2.2.2.5,0,.7l-4.5,2.6c-.2,0-.4,0-.5,0,0,0-.1-.1-.2-.2-.1-.1-.1-.3,0-.5h0ZM23.5,7.1s-.1,0-.2,0c-.2,0-.3-.3-.2-.5.2-.8.6-2.7.8-3.6,0-.2.3-.3.5-.3.6.1,1.2.3,1.8.5.3,0,.3.4.2.6l-2.3,3.2c-.1.1-.3.2-.5.1h0ZM25.6,13.4c.3,3.3-2.5,6.1-5.8,5.8-2.5-.3-4.4-2.2-4.7-4.7-.3-3.3,2.5-6.1,5.8-5.8,2.5.3,4.4,2.2,4.7,4.7ZM16.6,7l-2.3-3.2c-.1-.2,0-.5.2-.6.6-.2,1.2-.4,1.8-.5.2,0,.4,0,.5.3l.7,3.6c0,.2,0,.4-.2.5,0,0-.1,0-.2.1-.2,0-.4,0-.5-.1h0ZM14.8,8.8s-.1.1-.2.2c-.1.1-.3.2-.5,0l-4.5-2.6c-.3-.1-.3-.5,0-.7.7-.5,1.3-.9,2-1.3.2,0,.4,0,.5.1l2.7,3.7c.1.1.1.4,0,.5h0ZM13.8,17.6s0,.1.1.2c0,.2,0,.4,0,.5l-3.2,2.9s-.3.1-.4,0c-.9-.5-1.9-.8-2.9-1.1-.4-.1-.4-.6,0-.7l6-2c.2,0,.4,0,.5.2h0ZM15.8,19.9s.1,0,.2.1c.1.1.2.3.1.5l-1.4,3.2c-.1.3-.4.3-.6.1-.4-.3-.9-.7-1.3-1-.2-.1-.2-.5,0-.6.7-.6,2-1.8,2.6-2.3.1-.1.3-.1.5,0h0ZM18.6,21.2s.1,0,.2,0c.2,0,.3.2.3.4v7c0,.4-.5.5-.7.2-.6-1-1.3-1.9-2.1-2.8-.1-.1-.1-.3,0-.4l1.9-4.2c0-.2.3-.3.5-.2ZM21.8,21.3s.2,0,.2,0c.2,0,.4,0,.5.2l1.9,4.2s0,.3,0,.4c-.8.9-1.5,1.8-2.1,2.8-.2.3-.7.2-.7-.2v-7c0-.2.1-.3.3-.4ZM25.9,23.7l-1.4-3.2c0-.2,0-.4.1-.5,0,0,.1,0,.2-.1.1-.1.4-.1.5,0,.5.5,1.9,1.7,2.5,2.3.2.2.2.5,0,.6-.5.3-.9.7-1.3,1-.2.2-.5.1-.6-.1h0ZM30.1,21.2l-3.3-2.9s-.2-.3,0-.5c0,0,0-.1.1-.2,0-.2.3-.2.5-.2l6,2c.4.1.4.6,0,.7-1,.3-1.9.7-2.9,1.1-.1,0-.3,0-.4,0h0ZM35.2,11.2l-7.3.8c-.2,0-.4,0-.4-.3,0,0,0-.1,0-.2,0-.2,0-.4.2-.5l5.4-3.1c.2,0,.4,0,.5,0,.7.8,1.4,1.7,2,2.6.2.3,0,.6-.3.6h0ZM21.6,2.8l-.7,3.3c0,.2-.2.3-.4.3h-.2c-.2,0-.3-.1-.4-.3l-.7-3.3c0-.2.1-.5.4-.5h1.7c.3,0,.4.2.4.5h0ZM7.6,7.9l5.4,3.1c.2,0,.2.3.2.5,0,0,0,.1,0,.2,0,.2-.2.3-.4.3l-7.3-.8c-.3,0-.5-.4-.3-.6.6-.9,1.3-1.8,2-2.6.1-.1.3-.2.5,0h0ZM2.3,22c0-.3.2-.5.4-.4,4.2.4,8.1,2.2,11.1,5.2,3,3,4.8,6.9,5.2,11.1,0,.3-.2.5-.4.4-4.2-.4-8.1-2.2-11.1-5.2-3-3-4.8-6.9-5.2-11.1ZM21.5,37.9c.8-8.7,7.7-15.6,16.3-16.3.3,0,.5.2.4.4-.8,8.7-7.7,15.6-16.3,16.3-.3,0-.5-.2-.4-.4Z"/>
</svg>