<?xml version="1.0" encoding="UTF-8"?>
<svg id="Livello_1" xmlns="http://www.w3.org/2000/svg" version="1.1" viewBox="0 0 500 500">
  <!-- Generator: Adobe Illustrator 29.1.0, SVG Export Plug-In . SVG Version: 2.1.0 Build 142)  -->
  <defs>
    <style>
      .st0 {
        fill: #485e48;
      }
    </style>
  </defs>
  <g id="Elements">
    <g>
      <g>
        <path class="st0" d="M292.42,359.5h-84.88c-36.95,0-67.02-30.07-67.02-67.02v-84.88c0-36.95,30.07-67.02,67.02-67.02h84.88c36.95,0,67.02,30.07,67.02,67.02v84.88c0,36.95-30.07,67.02-67.02,67.02ZM207.55,156.95c-27.91,0-50.65,22.71-50.65,50.65v84.87c0,27.91,22.71,50.65,50.65,50.65h84.88c27.91,0,50.65-22.71,50.65-50.65v-84.88c0-27.91-22.71-50.65-50.65-50.65h-84.88Z"/>
        <path class="st0" d="M249.99,305.41c-30.53,0-55.37-24.84-55.37-55.37s24.84-55.37,55.37-55.37,55.37,24.84,55.37,55.37-24.84,55.37-55.37,55.37ZM249.99,211.41c-21.29,0-38.6,17.31-38.6,38.6s17.31,38.6,38.6,38.6,38.6-17.31,38.6-38.6-17.31-38.6-38.6-38.6Z"/>
        <path class="st0" d="M325.82,188.62c0,7.96-6.45,14.41-14.41,14.41s-14.41-6.45-14.41-14.41,6.45-14.41,14.41-14.41,14.41,6.45,14.41,14.41Z"/>
      </g>
      <path class="st0" d="M331.34,452.51h-162.67c-66.8,0-121.17-54.35-121.17-121.17v-162.67c0-66.8,54.35-121.17,121.17-121.17h162.67c66.8,0,121.17,54.35,121.17,121.17v162.67c0,66.8-54.35,121.17-121.17,121.17ZM168.66,64.35c-57.53,0-104.35,46.81-104.35,104.35v162.67c0,57.53,46.81,104.35,104.35,104.35h162.67c57.53,0,104.35-46.81,104.35-104.35v-162.67c0-57.53-46.81-104.35-104.35-104.35h-162.67Z"/>
    </g>
  </g>
</svg>