<svg xmlns="http://www.w3.org/2000/svg" width="235" height="41" viewBox="0 0 235 41" fill="none"><path d="M0.171951 27.344C0.429878 27.344 0.630488 27.258 0.745122 27.172C0.859756 27.086 0.945732 26.9427 1.00305 26.7421C1.06037 26.5414 1.08902 26.2261 1.08902 25.7962V15.3051C1.08902 14.9611 1.08902 14.6745 1.00305 14.4739C0.917073 14.2732 0.859756 14.1586 0.716463 14.0439C0.573171 13.9579 0.315244 13.9006 0 13.8719V13.2126L3.81159 12.582H3.92622V25.7675C3.92622 26.1975 3.92622 26.5414 3.98354 26.7421C4.04085 26.9427 4.09817 27.086 4.21281 27.1434C4.32744 27.2007 4.52805 27.258 4.78598 27.2867V27.946H0.171951V27.2867V27.344Z" fill="#485E4D"></path><path d="M8.76955 28.2907C8.02443 28.2907 7.39394 28.0614 6.90674 27.6027C6.39089 27.1441 6.16162 26.5422 6.16162 25.7969C6.16162 25.0516 6.47686 24.421 7.07869 23.9337C7.68052 23.4464 8.56894 23.1025 9.71528 22.7872L12.0939 22.1279L12.1513 23.1885L10.5464 23.7617C10.0592 23.9337 9.65796 24.1344 9.40004 24.3924C9.14211 24.6217 8.99882 24.937 8.99882 25.3096C8.99882 25.6536 9.11345 25.9402 9.31406 26.1409C9.51467 26.3415 9.7726 26.4562 10.0592 26.4562C10.4031 26.4562 10.7183 26.3415 11.0049 26.0835C11.2915 25.8256 11.5208 25.5103 11.6927 25.109V21.4113C11.6927 20.752 11.4921 20.2647 11.0909 19.9494C10.6897 19.6055 10.2025 19.4335 9.60065 19.4335C9.11345 19.4335 8.65491 19.5195 8.22504 19.6915C7.79516 19.8634 7.33662 20.0927 6.90674 20.3794L6.30491 19.5481C6.9354 18.9749 7.62321 18.4876 8.36833 18.1149C9.11345 17.7423 9.88723 17.5703 10.661 17.5703C11.3775 17.5703 12.008 17.685 12.5811 17.9429C13.1543 18.2009 13.6415 18.6022 13.9854 19.2042C14.3293 19.8061 14.5299 20.58 14.5299 21.5546V26.1695C14.5299 26.3988 14.5872 26.5995 14.6732 26.7141C14.7592 26.8288 14.9025 26.8861 15.0744 26.8861C15.3037 26.8861 15.5616 26.8001 15.7909 26.6568L16.1635 27.4021C15.7622 27.6887 15.361 27.918 14.9885 28.0614C14.6159 28.2047 14.186 28.2907 13.7275 28.2907C13.1256 28.2907 12.6671 28.1473 12.2945 27.8034C11.922 27.4881 11.75 27.0868 11.75 26.5708H11.5781C11.2628 27.1441 10.8616 27.5741 10.4031 27.8894C9.94455 28.2047 9.42869 28.348 8.85552 28.348L8.76955 28.2907Z" fill="#485E4D"></path><path d="M22.8696 34.3945C23.5861 34.2798 24.1306 34.1078 24.4745 33.9072C24.8184 33.7065 25.0763 33.3339 25.2196 32.8466C25.3629 32.3593 25.4489 31.6427 25.4489 30.6968V10.718C25.4489 9.80071 25.3629 9.11277 25.2196 8.62548C25.0763 8.13819 24.8184 7.79423 24.4745 7.59358C24.1306 7.39293 23.5861 7.22094 22.8696 7.10629V5.81641H45.1087V12.9824H43.733C43.4178 11.4632 42.7873 10.4027 41.8702 9.77204C40.9245 9.14144 39.4056 8.82613 37.2562 8.82613H31.8398V19.4892H36.3105C38.0873 19.4892 39.3196 19.2598 40.0361 18.8012C40.7526 18.3426 41.1538 17.5113 41.2971 16.3074H42.6727V25.5946H41.2971C41.1538 24.448 40.7239 23.6454 40.0074 23.1868C39.291 22.7282 38.0587 22.4989 36.3105 22.4989H31.8398V30.6968C31.8398 31.6427 31.9257 32.3593 32.0977 32.8466C32.2696 33.3339 32.5562 33.6779 32.9861 33.9072C33.416 34.1365 34.0178 34.2798 34.8489 34.3945V35.6843H22.8983V34.3945H22.8696Z" fill="#485E4D"></path><path d="M62.8485 36.2876C60.2406 36.2876 58.0052 35.7717 56.1137 34.7684C54.2223 33.7652 52.7894 32.246 51.7863 30.2395C50.7833 28.2617 50.2961 25.8539 50.2961 23.0448V10.8339C50.2961 9.85936 50.2101 9.14276 50.0668 8.6268C49.9235 8.13951 49.6656 7.79555 49.3217 7.5949C48.9778 7.39425 48.4333 7.22226 47.7168 7.07894V5.78906H59.2375V7.07894C58.4924 7.22226 57.9479 7.39425 57.604 7.5949C57.2601 7.79555 57.0022 8.13951 56.8875 8.59814C56.7729 9.05676 56.6583 9.80203 56.6583 10.8053V23.0162C56.6583 24.736 56.9162 26.2552 57.4607 27.5737C58.0052 28.8923 58.8363 29.9242 59.954 30.6981C61.1003 31.472 62.5046 31.8447 64.1955 31.8447C66.5455 31.8447 68.3796 31.0994 69.6979 29.5802C71.0162 28.061 71.6753 25.8826 71.6753 23.0162V10.9773C71.6753 10.0027 71.5894 9.25741 71.4174 8.7128C71.2455 8.16818 70.9875 7.79555 70.615 7.56623C70.2424 7.33692 69.7552 7.1936 69.0961 7.07894V5.78906H77.6077V7.07894C76.9485 7.16494 76.4327 7.30826 76.0887 7.56623C75.7448 7.82421 75.4583 8.16818 75.2863 8.7128C75.1144 9.25741 75.0284 10.0027 75.0284 10.9773V23.0162C75.0284 25.7679 74.5412 28.147 73.5955 30.1248C72.6497 32.1027 71.2741 33.6505 69.44 34.7111C67.6058 35.7717 65.4278 36.3163 62.8485 36.3163V36.2876Z" fill="#485E4D"></path><path d="M96.3787 36.288C93.3982 36.288 90.6757 35.686 88.2683 34.4248C85.8324 33.1923 83.8836 31.4151 82.4507 29.0933C81.0177 26.7715 80.3013 24.0484 80.3013 20.9241C80.3013 17.7997 81.075 14.9906 82.5653 12.6115C84.0842 10.2324 86.119 8.36921 88.6409 7.10799C91.1629 5.84677 93.8854 5.1875 96.7513 5.1875C98.3275 5.1875 99.9037 5.35948 101.451 5.73212C102.999 6.10475 104.46 6.6207 105.779 7.30864V14.618H104.403C103.629 12.4682 102.655 10.8916 101.423 9.83108C100.219 8.79917 98.7574 8.28322 97.0092 8.28322C95.0604 8.28322 93.3696 8.79917 91.908 9.80241C90.4464 10.8057 89.3287 12.2102 88.5263 13.9587C87.7238 15.7072 87.3513 17.6564 87.3513 19.7775C87.3513 22.1853 87.8385 24.2778 88.7842 26.0836C89.7299 27.8894 91.0482 29.2366 92.7104 30.2112C94.3726 31.1858 96.2641 31.6444 98.3848 31.6444C100.047 31.6444 101.595 31.3864 102.999 30.8418C104.403 30.2972 105.721 29.5519 106.896 28.5487L108.473 30.1825C106.81 32.275 104.976 33.8229 102.97 34.7975C100.964 35.8007 98.786 36.288 96.4074 36.288H96.3787Z" fill="#485E4D"></path><path d="M110.421 34.3945C111.167 34.2225 111.711 34.0505 112.055 33.8498C112.399 33.6779 112.657 33.3626 112.771 32.9039C112.915 32.4453 113.001 31.7574 113.001 30.7828V10.718C113.001 9.74338 112.915 9.02678 112.771 8.59682C112.628 8.16686 112.399 7.85155 112.055 7.65091C111.711 7.47892 111.167 7.27827 110.421 7.10629V5.81641H121.942V7.10629C121.197 7.27827 120.652 7.45026 120.309 7.65091C119.965 7.85155 119.707 8.16686 119.592 8.59682C119.449 9.05544 119.363 9.74338 119.363 10.718V30.7828C119.363 31.7574 119.449 32.474 119.592 32.9039C119.735 33.3339 119.965 33.6492 120.309 33.8498C120.652 34.0505 121.197 34.2225 121.942 34.3945V35.6843H110.421V34.3945Z" fill="#485E4D"></path><path d="M125.725 34.3958C126.413 34.3384 126.929 34.1665 127.33 33.8512C127.703 33.5645 127.96 33.1346 128.104 32.5613C128.247 31.988 128.333 31.2427 128.333 30.2968V8.99944L126.126 6.0757V5.81773H135.154L148.279 25.166H148.623V11.0346C148.623 10.0887 148.537 9.3434 148.394 8.79879C148.251 8.25417 147.993 7.85287 147.62 7.5949C147.248 7.33692 146.732 7.16494 146.044 7.07894V5.78906H154.556V7.07894C153.839 7.16494 153.295 7.33692 152.951 7.5949C152.607 7.85287 152.349 8.25417 152.206 8.79879C152.062 9.3434 151.976 10.0887 151.976 11.0346V35.6857H147.678L132.03 12.6398H131.686V30.3255C131.686 31.3001 131.743 32.0453 131.915 32.5899C132.059 33.1346 132.317 33.5645 132.66 33.8512C133.004 34.1378 133.549 34.3384 134.265 34.3958V35.6857H125.754V34.3958H125.725Z" fill="#485E4D"></path><path d="M155.559 34.3945C156.562 34.2225 157.307 33.8785 157.765 33.3626C158.224 32.8466 158.682 31.958 159.17 30.6968L169.2 5.81641H172.639L182.899 30.4102C183.501 31.8147 184.017 32.7606 184.475 33.2766C184.905 33.7925 185.621 34.1651 186.567 34.4231V35.713H174.387V34.4231C175.276 34.2511 175.877 34.0218 176.221 33.7065C176.537 33.3912 176.709 33.0186 176.651 32.56C176.623 32.1013 176.422 31.4707 176.078 30.6395L169.515 14.4729H169.171L162.838 30.3528C162.465 31.2701 162.265 31.9867 162.265 32.5026C162.265 33.0186 162.437 33.4485 162.867 33.7639C163.268 34.0792 163.984 34.3085 164.987 34.4518V35.7417H155.559V34.4518V34.3945ZM162.867 27.1998V24.1901H175.935V27.1998H162.867Z" fill="#485E4D"></path><path d="M214.71 0C209.293 0 204.192 2.12114 200.352 5.96212C196.511 9.8031 194.391 14.9053 194.391 20.3228C194.391 26.0556 196.741 31.4158 201.011 35.3141C204.421 38.4385 208.835 40.3016 213.42 40.5883C225.199 41.3049 235 31.9317 235 20.3228C235 8.71387 225.886 0 214.681 0H214.71ZM207.23 14.59C207.23 14.59 207.23 14.7333 207.23 14.8193C207.23 15.02 207.144 15.1919 206.943 15.2493L197.285 18.4023C196.999 18.4883 196.741 18.259 196.769 17.9724C196.97 16.4532 197.342 14.9913 197.916 13.6154C197.973 13.4434 198.145 13.3574 198.317 13.3574L206.828 14.246C207.029 14.246 207.172 14.418 207.172 14.59H207.23ZM231.475 13.5868C232.019 14.9626 232.421 16.4245 232.621 17.9437C232.65 18.2303 232.392 18.4596 232.105 18.3737L222.476 15.2206C222.304 15.1633 222.189 14.9913 222.189 14.7906C222.189 14.7047 222.189 14.6473 222.189 14.5613C222.189 14.3607 222.361 14.2174 222.533 14.2174L231.016 13.3288C231.188 13.3288 231.36 13.4148 231.417 13.5868H231.475ZM220.183 8.31257L222.877 4.61491C222.992 4.44293 223.221 4.41426 223.393 4.50026C224.11 4.90155 224.769 5.33151 225.428 5.79014C225.657 5.96212 225.657 6.30609 225.399 6.44941L220.9 9.05784C220.728 9.14383 220.527 9.11517 220.413 8.97185C220.355 8.91452 220.298 8.85719 220.241 8.79986C220.126 8.65654 220.097 8.45589 220.241 8.31257H220.183ZM217.891 7.10868C217.891 7.10868 217.747 7.05135 217.661 7.02269C217.489 6.9367 217.403 6.76471 217.432 6.56407C217.604 5.79014 218.005 3.84098 218.206 3.00972C218.263 2.78041 218.464 2.66576 218.693 2.69442C219.295 2.83774 219.897 3.00972 220.499 3.21037C220.756 3.29637 220.842 3.61167 220.699 3.81232L218.406 6.96536C218.292 7.10868 218.091 7.16601 217.919 7.10868H217.891ZM219.954 13.3861C220.298 16.7111 217.489 19.4915 214.165 19.1762C211.7 18.9183 209.723 16.9405 209.465 14.4753C209.121 11.1503 211.93 8.3699 215.254 8.6852C217.719 8.94318 219.696 10.921 219.954 13.3861ZM211.041 6.96536L208.749 3.81232C208.605 3.58301 208.691 3.29637 208.949 3.21037C209.551 3.00972 210.153 2.83774 210.755 2.69442C210.984 2.63709 211.185 2.78041 211.242 3.00972L211.987 6.56407C212.016 6.73605 211.93 6.9367 211.758 7.02269C211.672 7.05135 211.614 7.08002 211.528 7.13735C211.356 7.22334 211.156 7.13735 211.041 6.99403V6.96536ZM209.207 8.79986C209.207 8.79986 209.092 8.91452 209.035 8.97185C208.921 9.11517 208.691 9.14383 208.548 9.05784L204.02 6.44941C203.762 6.30609 203.762 5.96212 203.991 5.79014C204.65 5.30285 205.338 4.87289 206.026 4.47159C206.198 4.3856 206.427 4.41426 206.542 4.58625L209.236 8.28391C209.35 8.42723 209.35 8.65654 209.236 8.7712L209.207 8.79986ZM208.147 17.5711C208.147 17.5711 208.233 17.7144 208.261 17.7717C208.347 17.9437 208.319 18.1443 208.175 18.259L204.937 21.1827C204.937 21.1827 204.65 21.326 204.507 21.2401C203.59 20.7814 202.616 20.4088 201.641 20.0935C201.269 19.9788 201.269 19.4629 201.641 19.3482L207.688 17.3704C207.86 17.3131 208.061 17.3704 208.147 17.5424V17.5711ZM210.181 19.9215C210.181 19.9215 210.325 20.0075 210.382 20.0648C210.525 20.1795 210.583 20.3801 210.525 20.5521L209.121 23.7052C209.006 23.9631 208.691 24.0205 208.491 23.8485C208.061 23.5045 207.631 23.1605 207.201 22.8452C207 22.7019 206.972 22.3866 207.172 22.2146C207.831 21.6127 209.15 20.4375 209.723 19.9215C209.866 19.8069 210.067 19.7782 210.21 19.9215H210.181ZM213.019 21.2401C213.019 21.2401 213.162 21.2687 213.248 21.2974C213.42 21.326 213.563 21.498 213.563 21.6987C213.563 22.8166 213.563 26.5429 213.563 28.664C213.563 29.0653 213.047 29.2087 212.818 28.8647C212.216 27.8901 211.528 26.9442 210.755 26.0843C210.64 25.9696 210.611 25.7976 210.697 25.6543L212.56 21.4694C212.646 21.2974 212.818 21.2114 213.019 21.2401ZM216.142 21.2974C216.142 21.2974 216.314 21.2687 216.372 21.2401C216.544 21.2114 216.744 21.2974 216.83 21.4694L218.693 25.6543C218.693 25.6543 218.722 25.9696 218.636 26.0843C217.862 26.9442 217.174 27.8901 216.572 28.8934C216.372 29.2373 215.827 29.094 215.827 28.6927C215.827 26.5716 215.827 22.8166 215.827 21.6987C215.827 21.498 215.971 21.3547 216.142 21.2974ZM220.298 23.7338L218.894 20.5521C218.808 20.3801 218.894 20.1795 219.037 20.0648C219.094 20.0075 219.18 19.9788 219.238 19.9215C219.381 19.8069 219.61 19.8069 219.725 19.9215C220.269 20.4088 221.616 21.6127 222.275 22.2146C222.476 22.3866 222.447 22.7019 222.247 22.8452C221.788 23.1605 221.358 23.5045 220.957 23.8485C220.756 24.0205 220.441 23.9631 220.327 23.7052L220.298 23.7338ZM224.482 21.2114L221.215 18.2877C221.215 18.2877 221.043 17.9437 221.129 17.8004C221.158 17.743 221.215 17.657 221.244 17.5997C221.33 17.4277 221.53 17.3704 221.702 17.4277L227.749 19.4056C228.122 19.5202 228.122 20.0362 227.749 20.1508C226.746 20.4661 225.8 20.8388 224.883 21.2974C224.74 21.3834 224.568 21.3547 224.453 21.2401L224.482 21.2114ZM229.612 11.2363L222.304 12.0102C222.103 12.0102 221.931 11.9242 221.874 11.7236C221.874 11.6376 221.817 11.5803 221.788 11.4943C221.731 11.3223 221.788 11.1216 221.96 11.0357L227.348 7.93994C227.52 7.85395 227.721 7.88261 227.835 7.99727C228.58 8.79986 229.268 9.68845 229.87 10.6344C230.042 10.8923 229.87 11.2076 229.583 11.265L229.612 11.2363ZM215.942 2.75175L215.225 6.07678C215.197 6.27743 215.025 6.39208 214.824 6.39208C214.796 6.39208 214.738 6.39208 214.71 6.39208C214.681 6.39208 214.624 6.39208 214.595 6.39208C214.394 6.39208 214.251 6.27743 214.194 6.07678L213.477 2.75175C213.42 2.52244 213.592 2.29312 213.85 2.26446C214.136 2.26446 214.423 2.26446 214.681 2.26446C214.939 2.26446 215.254 2.26446 215.541 2.26446C215.799 2.26446 215.971 2.49377 215.913 2.75175H215.942ZM202.014 7.91128L207.402 11.0357C207.574 11.1216 207.631 11.3223 207.574 11.4943C207.574 11.5803 207.516 11.6376 207.488 11.7236C207.43 11.8956 207.258 12.0102 207.058 12.0102L199.721 11.2363C199.435 11.2076 199.263 10.8637 199.435 10.6057C200.036 9.68845 200.724 8.79986 201.469 7.9686C201.584 7.82528 201.813 7.79662 201.956 7.91128H202.014ZM196.741 21.9567C196.741 21.6987 196.913 21.498 197.171 21.5267C201.383 21.8993 205.281 23.7052 208.29 26.7436C211.299 29.7533 213.133 33.6803 213.506 37.8652C213.506 38.1232 213.305 38.3238 213.076 38.2952C208.863 37.9225 204.966 36.1167 201.956 33.0783C198.947 30.0686 197.113 26.1416 196.741 21.9567ZM215.913 37.8652C216.687 29.2087 223.594 22.3006 232.249 21.5267C232.506 21.5267 232.707 21.7273 232.678 21.9567C231.905 30.6132 224.998 37.5212 216.343 38.2952C216.085 38.2952 215.885 38.0945 215.913 37.8652Z" fill="#485E4D"></path></svg>