<?xml version="1.0" encoding="UTF-8"?>
<svg id="Capa_1" xmlns="http://www.w3.org/2000/svg" version="1.1" viewBox="0 0 512 512">
  <!-- Generator: Adobe Illustrator 29.1.0, SVG Export Plug-In . SVG Version: 2.1.0 Build 142)  -->
  <defs>
    <style>
      .st0 {
        fill: #fff;
      }
    </style>
  </defs>
  <path class="st0" d="M470.1,187.4l41.9-45.5h-92.8c-46.5-31.7-102.6-50.2-163.2-50.2s-116.5,18.5-162.9,50.2H0l41.9,45.5C16.2,210.8.1,244.5.1,281.9c0,70.6,57.3,127.9,127.9,127.9s64.1-12.9,87-34.1l41,44.6,41-44.6c22.8,21.2,53.4,34,86.9,34,70.6,0,128-57.3,128-127.9,0-37.4-16.1-71.1-41.7-94.5ZM128.1,368.5c-47.8,0-86.5-38.7-86.5-86.5s38.7-86.6,86.5-86.6,86.5,38.7,86.5,86.6c0,47.8-38.7,86.5-86.5,86.5ZM256,279.4c0-57-41.4-105.9-96.1-126.7,29.6-12.4,62-19.2,96-19.2s66.5,6.8,96.1,19.2c-54.6,20.9-96,69.8-96,126.7ZM383.9,368.5c-47.8,0-86.6-38.7-86.6-86.5s38.7-86.6,86.6-86.6,86.5,38.7,86.5,86.6c0,47.8-38.7,86.5-86.5,86.5ZM383.9,236.5c-25.1,0-45.4,20.3-45.4,45.4s20.3,45.4,45.4,45.4,45.4-20.3,45.4-45.4c0-25-20.3-45.4-45.4-45.4ZM173.4,281.9c0,25.1-20.3,45.4-45.4,45.4s-45.4-20.3-45.4-45.4,20.3-45.4,45.4-45.4c25.1,0,45.4,20.3,45.4,45.4Z"/>
</svg>